<svg width="200" height="200" viewBox="0 0 200 200" fill="none" xmlns="http://www.w3.org/2000/svg">
<rect width="200" height="200" fill="#111827"/>
<rect width="200" height="200" fill="#111827"/>
<rect x="60" y="100" width="20" height="20" rx="5" fill="white"/>
<rect x="100" y="60" width="20" height="20" rx="5" fill="white"/>
<rect x="120" y="100" width="20" height="20" rx="5" fill="white"/>
<rect x="120" y="80" width="20" height="20" rx="5" fill="white"/>
<rect x="60" y="80" width="20" height="20" rx="5" fill="white"/>
<path d="M80 125C80 122.239 82.2386 120 85 120H95C97.7614 120 100 122.239 100 125V135C100 137.761 97.7614 140 95 140H85C82.2386 140 80 137.761 80 135V125Z" fill="white"/>
</svg>
